<svg xmlns="http://www.w3.org/2000/svg" xmlns:xlink="http://www.w3.org/1999/xlink" version="1.1" id="Layer_1" x="0px" y="0px" width="90px" height="90px" viewBox="0 0 90 90" enable-background="new 0 0 90 90" xml:space="preserve">
<style>path{ fill: #ffffff }</style>
<g>
	<path d="M81.653,28.71c0,0.9-0.729,1.629-1.629,1.629H9.976c-0.9,0-1.629-0.729-1.629-1.629V17.307c0-0.9,0.729-1.629,1.629-1.629   h70.048c0.9,0,1.629,0.729,1.629,1.629V28.71z"/>
	<path d="M81.653,50.702c0,0.9-0.729,1.629-1.629,1.629H9.976c-0.9,0-1.629-0.729-1.629-1.629V39.298c0-0.9,0.729-1.629,1.629-1.629   h70.048c0.9,0,1.629,0.729,1.629,1.629V50.702z"/>
	<path d="M81.653,72.693c0,0.9-0.729,1.629-1.629,1.629H9.976c-0.9,0-1.629-0.729-1.629-1.629V61.29c0-0.9,0.729-1.629,1.629-1.629   h70.048c0.9,0,1.629,0.729,1.629,1.629V72.693z"/>
</g>
</svg>
