<svg xmlns="http://www.w3.org/2000/svg" xmlns:xlink="http://www.w3.org/1999/xlink" version="1.1" x="0px" y="0px" viewBox="0 0 100 125" enable-background="new 0 0 100 100" xml:space="preserve"><path d="M83.511,18.404c4.223,0,7.659,3.438,7.659,7.659v30.639c0,4.225-3.437,7.659-7.659,7.659h-5.109h-1.672l-1.139,1.228  l-9.314,10.064v-7.462v-3.83h-3.829H16.489c-4.223,0-7.659-3.435-7.659-7.659V26.063c0-4.222,3.437-7.659,7.659-7.659H83.511   M83.511,14.574H16.489C10.145,14.574,5,19.721,5,26.063v30.639c0,6.347,5.145,11.489,11.489,11.489h45.958v17.234l15.954-17.234  h5.109C89.854,68.191,95,63.049,95,56.702V26.063C95,19.721,89.854,14.574,83.511,14.574"/><rect x="14.574" y="47.128" width="24.894" height="3.829"/><rect x="43.298" y="47.128" width="17.234" height="3.829"/><rect x="64.361" y="47.128" width="21.064" height="3.829"/><rect x="70.106" y="54.787" width="13.404" height="3.83"/><rect x="33.724" y="54.787" width="32.553" height="3.83"/><rect x="16.489" y="54.787" width="13.404" height="3.83"/></svg>
