<svg xmlns="http://www.w3.org/2000/svg" xmlns:xlink="http://www.w3.org/1999/xlink" version="1.1" x="0px" y="0px" viewBox="0 0 100 125" enable-background="new 0 0 100 100" xml:space="preserve"><g><path fill="#ffffff" fill-rule="evenodd" clip-rule="evenodd" d="M54,21h-8c-15.464,0-28,12.536-28,28v4v6v12c0,4.418,3.582,8,8,8   s8-3.582,8-8V59c0-4.418-3.582-8-8-8c-1.467,0-2.824,0.417-4,1.113V49c0-13.255,10.745-24,24-24h8c13.255,0,24,10.746,24,24v3.113   C76.824,51.417,75.467,51,74,51c-4.418,0-8,3.582-8,8v12c0,4.418,3.582,8,8,8s8-3.582,8-8V59v-6v-4C82,33.535,69.464,21,54,21z    M26,55c2.209,0,4,1.791,4,4v12c0,2.209-1.791,4-4,4s-4-1.791-4-4V59C22,56.791,23.791,55,26,55z M74,75c-2.209,0-4-1.791-4-4V59   c0-2.209,1.791-4,4-4s4,1.791,4,4v12C78,73.209,76.209,75,74,75z"/></g></svg>
